<?xml version="1.0" encoding="UTF-8" standalone="no"?>
<svg
   height="48px"
   viewBox="0 -960 960 960"
   width="48px"
   fill="#1f1f1f"
   version="1.1"
   id="svg1"
   sodipodi:docname="autoproxy-active.svg"
   inkscape:version="1.4.2 (ebf0e940, 2025-05-08)"
   xmlns:inkscape="http://www.inkscape.org/namespaces/inkscape"
   xmlns:sodipodi="http://sodipodi.sourceforge.net/DTD/sodipodi-0.dtd"
   xmlns="http://www.w3.org/2000/svg"
   xmlns:svg="http://www.w3.org/2000/svg">
  <defs
     id="defs1" />
  <sodipodi:namedview
     id="namedview1"
     pagecolor="#ffffff"
     bordercolor="#000000"
     borderopacity="0.25"
     inkscape:showpageshadow="2"
     inkscape:pageopacity="0.0"
     inkscape:pagecheckerboard="0"
     inkscape:deskcolor="#d1d1d1"
     inkscape:zoom="6.1282588"
     inkscape:cx="23.905648"
     inkscape:cy="23.905648"
     inkscape:window-width="1496"
     inkscape:window-height="806"
     inkscape:window-x="0"
     inkscape:window-y="44"
     inkscape:window-maximized="0"
     inkscape:current-layer="svg1"
     showgrid="false" />
  <path
     d="M182.15-154.02q-27.6 0-47.86-20.27-20.27-20.26-20.27-47.86v-595.7q0-27.7 20.27-48.03 20.26-20.34 47.86-20.34h595.7q27.7 0 48.03 20.34 20.34 20.33 20.34 48.03v302.72q-9.44-1.72-17.56-2.58-8.12-.86-17.66-.86H560q-39.37 0-75.54 12.68-36.16 12.67-67.83 34.46H288.57v142.86h23.36q-3.23 12.72-4.85 25.9-1.62 13.19-1.62 26.97 0 31.43 8.38 63.67 8.38 32.25 22.9 58.01H182.15Zm106.42-414.55h142.86v-142.86H288.57v142.86ZM560-109q-67.91 0-116.23-48.32-48.31-48.31-48.31-116.36t47.68-116.35q47.68-48.3 116.86-48.3h70v64.55h-70q-42 0-71 29.12t-29 71q0 41.88 29 70.88 29 29 71 29h81V-109h-81Zm-31.43-459.57h142.86v-142.86H528.57v142.86ZM560-241.39v-64.78h240v64.78H560ZM720-109v-64.78h80q42 0 71-29t29-71q0-41.76-29-70.88-29-29.12-71-29.12h-70v-64.55h70q67.91 0 116.35 47.84 48.43 47.83 48.43 116.75 0 68-48.46 116.37Q867.85-109 800-109h-80Z"
     id="path1"
     style="fill:#00ad00;fill-opacity:1" />
</svg>
